# AST/ASF file generated using VICON BodyLanguage
# -----------------------------------------------
:version 1.10
:name VICON
:units
  mass 1.0
  length 0.45
  angle deg
:documentation
   .ast/.asf automatically generated from VICON data using
   VICON BodyBuilder and BodyLanguage model FoxedUp or BRILLIANT.MOD
:root
   order TX TY TZ RX RY RZ
   axis XYZ
   position 0 0 0  
   orientation 0 0 0 
:bonedata
  begin
     id 1 
     name lhipjoint
     direction 0.577973 -0.728611 0.367523 
     length 2.48544 
     axis 0 0 0  XYZ
  end
  begin
     id 2 
     name lfemur
     direction 0.34202 -0.939693 0  
     length 7.1921  
     axis 0 0 20  XYZ
    dof rx ry rz
    limits (-160.0 20.0)
           (-70.0 70.0)
           (-60.0 70.0)
  end
  begin
     id 3 
     name ltibia
     direction 0.34202 -0.939693 0   
     length 7.71059   
     axis 0 0 20   XYZ
    dof rx
    limits (-10.0 170.0)
  end
  begin
     id 4 
     name lfoot
     direction 0.089538 -0.246004 0.965124   
     length 2.19909   
     axis -90 7.62852e-016 20   XYZ
    dof rx rz
    limits (-45.0 90.0)
           (-70.0 20.0)
  end
  begin
     id 5 
     name ltoes
     direction 1.53544e-011 -4.21829e-011 1   
     length 1.10116   
     axis -90 7.62852e-016 20   XYZ
    dof rx
    limits (-90.0 20.0)
  end
  begin
     id 6 
     name rhipjoint
     direction -0.554414 -0.743062 0.374812   
     length 2.4371  
     axis 0 0 0  XYZ 
  end
  begin
     id 7 
     name rfemur
     direction -0.34202 -0.939693 0   
     length 7.47254   
     axis 0 0 -20   XYZ
    dof rx ry rz
    limits (-160.0 20.0)
           (-70.0 70.0)
           (-70.0 60.0)
  end
  begin
     id 8 
     name rtibia
     direction -0.34202 -0.939693 0   
     length 7.65855   
     axis 0 0 -20   XYZ
    dof rx
    limits (-10.0 170.0)
 end
 begin
     id 9 
     name rfoot
     direction -0.133779 -0.367555 0.92033   
     length 2.43006  
     axis -90 -7.62852e-016 -20   XYZ
    dof rx rz
    limits (-45.0 90.0)
           (-20.0 70.0)
  end
  begin
     id 10 
     name rtoes
     direction -1.53563e-011 -4.21889e-011 1   
     length 1.19625   
     axis -90 -7.62852e-016 -20   XYZ
    dof rx
    limits (-90.0 20.0)
  end
  begin
     id 11 
     name lowerback
     direction 0.0249066 0.998043 -0.0573585   
     length 2.08485   
     axis 0 0 0   XYZ
    dof rx ry rz
    limits (-20.0 45.0)
           (-30.0 30.0)
           (-30.0 30.0)
  end
  begin
     id 12 
     name upperback
     direction 0.0237884 0.999673 0.00943178   
     length 2.08515   
     axis 0 0 0   XYZ
    dof rx ry rz
    limits (-20.0 45.0)
           (-30.0 30.0)
           (-30.0 30.0)
  end
  begin
     id 13 
     name thorax
     direction 0.0106671 0.999301 0.0358174   
     length 2.09037   
     axis 0 0 0   XYZ
    dof rx ry rz
    limits (-20.0 45.0)
           (-30.0 30.0)
           (-30.0 30.0)
  end
  begin
     id 14 
     name lowerneck
     direction -0.0580016 0.987052 0.149546   
     length 1.84454   
     axis 0 0 0   XYZ
    dof rx ry rz
    limits (-20.0 45.0)
           (-30.0 30.0)
           (-30.0 30.0)
  end
  begin
     id 15 
     name upperneck
     direction 0.079456 0.981963 -0.171567   
     length 1.88141   
     axis 0 0 0   XYZ
    dof rx ry rz
    limits (-20.0 45.0)
           (-30.0 30.0)
           (-30.0 30.0)
  end
  begin
     id 16
     name head
     direction 0.0262167 0.9967 -0.0768276  
     length 1.89541  
     axis 0 0 0   XYZ
    dof rx ry rz
    limits (-20.0 45.0)
           (-30.0 30.0)
           (-30.0 30.0)
  end
  begin
     id 17 
     name lclavicle
     direction 0.946135 0.322134 -0.0325326  
     length 3.949  
     axis 0 0 0   XYZ
    dof ry rz
    limits (-20.0 10.0)
           (0.0 20.0)
  end
  begin
     id 18 
     name lhumerus
     direction 1 -4.48964e-011 1.94005e-028   
     length 5.10995   
     axis 180 -30 -90   XYZ
    dof rx ry rz
    limits (-60.0 90.0)
           (-90.0 90.0)
           (-90.0 90.0)
  end
  begin
     id 19
     name lradius
     direction 1 -4.48976e-011 2.87852e-027   
     length 3.21207   
     axis 180 -30 -90   XYZ
    dof rx
    limits (-10.0 170.0)
  end
  begin
     id 20
     name lwrist
     direction 1 -4.48963e-011 1.9975e-027   
     length 1.60604   
     axis 2.96054e-016 90 90   XYZ
    dof ry
    limits (-180.0 0.0)
 end
  begin
     id 21 
     name lhand
     direction 1 -4.48919e-011 4.00227e-027   
     length 0.63349   
     axis -2.5488e-015 90 90   XYZ
    dof rx rz
    limits (-90.0 90.0)
           (-45.0 45.0)
  end
  begin
     id 22 
     name lfingers
     direction 1 -4.49037e-011 7.9652e-027   
     length 0.510736   
     axis -5.0975e-015 90 90   XYZ
    dof rx
    limits (0.0 90.0)
  end
  begin
     id 23
     name lthumb
     direction 0.707107 -6.34922e-011 0.707107   
     length 0.733318   
     axis -90 45 -4.48553e-014   XYZ
    dof rx rz
    limits (-45.0 45.0)
           (-45.0 45.0)
  end
  begin
     id 24 
     name rclavicle
     direction -0.940085 0.328911 -0.0897654   
     length 3.93848  
     axis 0 0 0   XYZ 
    dof ry rz
    limits (-10.0 20.0)
           (-20.0 0.0)
  end
  begin
     id 25 
     name rhumerus
     direction -1 -4.48958e-011 3.02044e-027  
     length 5.25109   
     axis 180 30 90   XYZ
    dof rx ry rz
    limits (-90.0 60.0)
           (-90.0 90.0)
           (-90.0 90.0)
  end
  begin
     id 26 
     name rradius
     direction -1 -4.4897e-011 9.78352e-028   
     length 3.28364   
     axis 180 30 90   XYZ
    dof rx
    limits (-10.0 170.0)
  end
  begin
     id 27 
     name rwrist
     direction -1 -4.48943e-011 1.99918e-027   
     length 1.64182   
     axis 2.96054e-016 -90 -90   XYZ
    dof ry
    limits (-180.0 0.0)
  end
  begin
     id 28
     name rhand
     direction -1 -4.49024e-011 3.98478e-027   
     length 0.599745   
     axis -2.5488e-015 -90 -90   XYZ
    dof rx rz
    limits (-90.0 90.0)
           (-45.0 45.0)
  end
  begin
     id 29
     name rfingers
     direction -1 -4.48914e-011 8.00621e-027   
     length 0.48353   
     axis -5.0975e-015 -90 -90   XYZ
    dof rx
    limits (0.0 90.0)
  end
  begin
     id 30
     name rthumb
     direction -0.707107 -6.34992e-011 0.707107   
     length 0.694255   
     axis -90 -45 4.48553e-014   XYZ
    dof rx rz
    limits (-45.0 45.0)
           (-45.0 45.0)
  end
:hierarchy
  begin
    root lhipjoint rhipjoint lowerback
    lhipjoint lfemur
    lfemur ltibia
    ltibia lfoot
    lfoot ltoes
    rhipjoint rfemur
    rfemur rtibia
    rtibia rfoot
    rfoot rtoes
    lowerback upperback
    upperback thorax
    thorax lowerneck lclavicle rclavicle
    lowerneck upperneck
    upperneck head
    lclavicle lhumerus
    lhumerus lradius
    lradius lwrist
    lwrist lhand lthumb
    lhand lfingers
    rclavicle rhumerus
    rhumerus rradius
    rradius rwrist
    rwrist rhand rthumb
    rhand rfingers
  end

#!OML:ASF E:\CV Data\Top Level 1\Subject 1\Session 1\player.ASF
:FULLY-SPECIFIED
:DEGREES
318
root 5.45061 17.1298 -22.5669 25.2441 9.37511 0.908238
lowerback 42.4071 -1.31374 5.74462
upperback 10.1565 1.42546 4.22957
thorax -8.70493 0.581309 0.984811
lowerneck -17.0073 -10.4068 -13.4994
upperneck 11.8737 -13.2849 14.4282
head 8.40202 -5.75037 5.23862
rclavicle 2.06736e-014 1.98785e-014
rhumerus -13.4294 16.4316 -79.776
rradius 109.127
rwrist 24.4674
rhand -50.1658 35.7099
rfingers 7.12502
rthumb -22.7482 7.03098
lclavicle 2.06736e-014 1.98785e-014
lhumerus 18.052 -37.0971 92.078
lradius 73.9488
lwrist 9.47745
lhand -28.1992 12.2052
lfingers 7.12502
lthumb -1.57827 42.1791
rfemur -54.6457 -7.10294 18.5904
rtibia 49.2355
rfoot -15.5453 -16.0857
rtoes 0.757799
lfemur -53.2519 2.78034 -17.518
ltibia 37.1266
lfoot -7.05235 -9.41334
ltoes -3.65205
319
root 5.44722 17.1255 -22.5662 25.1888 9.39603 0.988348
lowerback 42.3728 -1.3302 5.76594
upperback 10.1323 1.40751 4.17723
thorax -8.71937 0.574623 0.92487
lowerneck -16.9462 -10.4134 -13.4821
upperneck 11.8118 -13.3002 14.436
head 8.37261 -5.76017 5.23759
rclavicle 1.59028e-014 -2.82274e-014
rhumerus -14.7575 16.8957 -80.24
rradius 110.651
rwrist 24.3738
rhand -50.3979 36.0811
rfingers 7.12502
rthumb -22.9709 7.42975
lclavicle 1.59028e-014 -2.82274e-014
lhumerus 17.7739 -37.6007 92.0189
lradius 74.7967
lwrist 10.8475
lhand -27.6948 11.7758
lfingers 7.12502
lthumb -1.0911 41.7528
rfemur -54.6366 -7.19664 18.5457
rtibia 49.3663
rfoot -15.623 -16.0573
rtoes 0.785126
lfemur -53.2028 2.78525 -17.6071
ltibia 37.1538
lfoot -7.09791 -9.50435
ltoes -3.65716
320
root 5.44314 17.121 -22.5661 25.1306 9.43636 1.06917
lowerback 42.3408 -1.34861 5.80245
upperback 10.1208 1.39464 4.13745
thorax -8.71986 0.570404 0.868616
lowerneck -16.8908 -10.4272 -13.4684
upperneck 11.7361 -13.3218 14.4409
head 8.34055 -5.77346 5.23479
rclavicle 1.59028e-015 2.22639e-014
rhumerus -15.9052 17.3493 -80.6897
rradius 111.907
rwrist 24.3236
rhand -50.6581 36.677
rfingers 7.12502
rthumb -23.2206 8.05689
lclavicle 1.59028e-015 2.22639e-014
lhumerus 17.5268 -38.071 91.994
lradius 75.6304
lwrist 12.1327
lhand -27.3762 11.2965
lfingers 7.12502
lthumb -0.783481 41.2748
rfemur -54.6229 -7.28871 18.4997
rtibia 49.4968
rfoot -15.7017 -16.0447
rtoes 0.826926
lfemur -53.1534 2.79644 -17.7036
ltibia 37.1675
lfoot -7.1381 -9.61723
ltoes -3.69178
321
root 5.43825 17.1169 -22.5665 25.0647 9.49321 1.14848
lowerback 42.3205 -1.3694 5.85038
upperback 10.1208 1.38554 4.1091
thorax -8.71077 0.56795 0.817383
lowerneck -16.843 -10.4469 -13.4572
upperneck 11.6511 -13.3483 14.4424
head 8.30728 -5.78941 5.23007
rclavicle 1.90833e-014 2.50469e-014
rhumerus -16.8541 17.776 -81.1121
rradius 112.886
rwrist 24.3569
rhand -50.9113 37.5343
rfingers 7.12502
rthumb -23.4635 8.94506
lclavicle 1.90833e-014 2.50469e-014
lhumerus 17.3158 -38.4812 92.0059
lradius 76.4249
lwrist 13.2614
lhand -27.2087 10.889
lfingers 7.12502
lthumb -0.621677 40.8679
rfemur -54.5958 -7.37345 18.4521
rtibia 49.6209
rfoot -15.7746 -16.0503
rtoes 0.859023
lfemur -53.0945 2.81146 -17.8007
ltibia 37.1675
lfoot -7.17031 -9.74601
ltoes -3.71901
322
root 5.43245 17.1135 -22.5676 24.9949 9.55973 1.22424
lowerback 42.3033 -1.38973 5.90332
upperback 10.1358 1.37981 4.09136
thorax -8.6856 0.567308 0.773662
lowerneck -16.8031 -10.4724 -13.4538
upperneck 11.5563 -13.3805 14.4512
head 8.27421 -5.80771 5.22784
rclavicle 1.43125e-014 9.14409e-015
rhumerus -17.5862 18.1777 -81.4963
rradius 113.59
rwrist 24.5033
rhand -51.19 38.5477
rfingers 7.12502
rthumb -23.7309 9.99291
lclavicle 1.43125e-014 9.14409e-015
lhumerus 17.1485 -38.8092 92.0587
lradius 77.1535
lwrist 14.1535
lhand -27.0906 10.4937
lfingers 7.12502
lthumb -0.507619 40.4729
rfemur -54.5585 -7.44119 18.4019
rtibia 49.7355
rfoot -15.8419 -16.0757
rtoes 0.888408
lfemur -53.0277 2.8273 -17.8902
ltibia 37.1579
lfoot -7.19106 -9.87907
ltoes -3.69445
